<svg width="609" height="374" viewBox="0 0 609 374" fill="none" xmlns="http://www.w3.org/2000/svg">
<path d="M567.72 325.014H608.5V327H304.5V67C432.402 67 421.28 325.014 567.72 325.014Z" fill="#075F58"/>
<path d="M41.2805 325.014H0.5V327H304.5V67C176.598 67 187.72 325.014 41.2805 325.014Z" fill="#075F58"/>
<path d="M304.5 86.0001C368.5 86.0001 331.5 343.449 567.72 343.449H608.5V345H0.5V343.449H41.2803C277.5 343.449 240.5 86.0001 304.5 86.0001Z" fill="#F4F3EE" fill-opacity="0.87"/>
<path d="M608.5 327V325.455H567.72C331.5 325.455 368.5 69 304.5 69C240.5 69 277.5 325.455 41.2803 325.455H0.5V327" stroke="#01D1B8" stroke-linecap="round"/>
<line x1="305" y1="23.5" x2="305" y2="373.5" stroke="#01D1B8" stroke-linecap="round"/>
<path d="M107.808 191.284V189.772H113.028V191.284H107.808ZM117.341 196V194.686H120.941V184.552H120.815L117.647 187.504L116.765 186.55L120.095 183.436H122.453V194.686H125.765V196H117.341ZM142.76 196.216C141.632 196.216 140.708 196.012 139.988 195.604C139.268 195.184 138.674 194.65 138.206 194.002L139.304 193.102C139.796 193.714 140.312 194.17 140.852 194.47C141.404 194.77 142.058 194.92 142.814 194.92C143.726 194.92 144.422 194.71 144.902 194.29C145.382 193.87 145.622 193.282 145.622 192.526C145.622 191.914 145.448 191.44 145.1 191.104C144.752 190.756 144.146 190.51 143.282 190.366L141.878 190.132C141.266 190.024 140.75 189.862 140.33 189.646C139.922 189.43 139.592 189.172 139.34 188.872C139.088 188.56 138.908 188.224 138.8 187.864C138.692 187.492 138.638 187.108 138.638 186.712C138.638 185.56 139.016 184.69 139.772 184.102C140.528 183.514 141.548 183.22 142.832 183.22C143.84 183.22 144.686 183.388 145.37 183.724C146.066 184.06 146.624 184.534 147.044 185.146L145.982 186.064C145.634 185.608 145.214 185.236 144.722 184.948C144.23 184.66 143.594 184.516 142.814 184.516C141.962 184.516 141.308 184.696 140.852 185.056C140.396 185.416 140.168 185.956 140.168 186.676C140.168 187.24 140.336 187.702 140.672 188.062C141.02 188.41 141.638 188.662 142.526 188.818L143.876 189.052C144.488 189.16 145.004 189.322 145.424 189.538C145.844 189.754 146.18 190.012 146.432 190.312C146.696 190.612 146.882 190.948 146.99 191.32C147.098 191.692 147.152 192.082 147.152 192.49C147.152 193.654 146.768 194.566 146 195.226C145.244 195.886 144.164 196.216 142.76 196.216ZM149.899 183.436H153.409C154.945 183.436 156.091 183.964 156.847 185.02C157.603 186.076 157.981 187.642 157.981 189.718C157.981 191.794 157.603 193.36 156.847 194.416C156.091 195.472 154.945 196 153.409 196H149.899V183.436ZM153.337 194.686C154.345 194.686 155.101 194.338 155.605 193.642C156.121 192.946 156.379 191.962 156.379 190.69V188.746C156.379 187.474 156.121 186.49 155.605 185.794C155.101 185.098 154.345 184.75 153.337 184.75H151.411V194.686H153.337Z" fill="#3F3F3F"/>
<path d="M309.35 18H307.64L306.146 15.498L304.49 12.762H304.418L302.708 15.498L301.124 18H299.468L303.572 11.592L299.702 5.436H301.412L302.87 7.866L304.436 10.404H304.508L306.056 7.866L307.568 5.436H309.224L305.336 11.574L309.35 18Z" fill="#3F3F3F"/>
<path d="M310 0.664796L299 0.664795" stroke="#3F3F3F"/>
<path d="M445.216 194.884V191.122H441.616V189.898H445.216V186.136H446.584V189.898H450.184V191.122H446.584V194.884H445.216ZM452.823 196V194.686H456.423V184.552H456.297L453.129 187.504L452.247 186.55L455.577 183.436H457.935V194.686H461.247V196H452.823ZM478.243 196.216C477.115 196.216 476.191 196.012 475.471 195.604C474.751 195.184 474.157 194.65 473.689 194.002L474.787 193.102C475.279 193.714 475.795 194.17 476.335 194.47C476.887 194.77 477.541 194.92 478.297 194.92C479.209 194.92 479.905 194.71 480.385 194.29C480.865 193.87 481.105 193.282 481.105 192.526C481.105 191.914 480.931 191.44 480.583 191.104C480.235 190.756 479.629 190.51 478.765 190.366L477.361 190.132C476.749 190.024 476.233 189.862 475.813 189.646C475.405 189.43 475.075 189.172 474.823 188.872C474.571 188.56 474.391 188.224 474.283 187.864C474.175 187.492 474.121 187.108 474.121 186.712C474.121 185.56 474.499 184.69 475.255 184.102C476.011 183.514 477.031 183.22 478.315 183.22C479.323 183.22 480.169 183.388 480.853 183.724C481.549 184.06 482.107 184.534 482.527 185.146L481.465 186.064C481.117 185.608 480.697 185.236 480.205 184.948C479.713 184.66 479.077 184.516 478.297 184.516C477.445 184.516 476.791 184.696 476.335 185.056C475.879 185.416 475.651 185.956 475.651 186.676C475.651 187.24 475.819 187.702 476.155 188.062C476.503 188.41 477.121 188.662 478.009 188.818L479.359 189.052C479.971 189.16 480.487 189.322 480.907 189.538C481.327 189.754 481.663 190.012 481.915 190.312C482.179 190.612 482.365 190.948 482.473 191.32C482.581 191.692 482.635 192.082 482.635 192.49C482.635 193.654 482.251 194.566 481.483 195.226C480.727 195.886 479.647 196.216 478.243 196.216ZM485.382 183.436H488.892C490.428 183.436 491.574 183.964 492.33 185.02C493.086 186.076 493.464 187.642 493.464 189.718C493.464 191.794 493.086 193.36 492.33 194.416C491.574 195.472 490.428 196 488.892 196H485.382V183.436ZM488.82 194.686C489.828 194.686 490.584 194.338 491.088 193.642C491.604 192.946 491.862 191.962 491.862 190.69V188.746C491.862 187.474 491.604 186.49 491.088 185.794C490.584 185.098 489.828 184.75 488.82 184.75H486.894V194.686H488.82Z" fill="#3F3F3F"/>
</svg>
