<svg width="34" height="34" viewBox="0 0 34 34" fill="none" xmlns="http://www.w3.org/2000/svg">
<path fill-rule="evenodd" clip-rule="evenodd" d="M8.88989 11.2195C8.88989 10.7278 9.25605 10.3293 9.70772 10.3293H24.2923C24.7439 10.3293 25.1101 10.7278 25.1101 11.2195C25.1101 11.7112 24.7439 12.1098 24.2923 12.1098H9.70772C9.25605 12.1098 8.88989 11.7112 8.88989 11.2195Z" fill="#075F58"/>
<path fill-rule="evenodd" clip-rule="evenodd" d="M8.88989 17C8.88989 16.5083 9.25605 16.1098 9.70772 16.1098H24.2923C24.7439 16.1098 25.1101 16.5083 25.1101 17C25.1101 17.4917 24.7439 17.8902 24.2923 17.8902H9.70772C9.25605 17.8902 8.88989 17.4917 8.88989 17Z" fill="#075F58"/>
<path fill-rule="evenodd" clip-rule="evenodd" d="M8.88989 22.7805C8.88989 22.2888 9.25605 21.8902 9.70772 21.8902H24.2923C24.7439 21.8902 25.1101 22.2888 25.1101 22.7805C25.1101 23.2722 24.7439 23.6707 24.2923 23.6707H9.70772C9.25605 23.6707 8.88989 23.2722 8.88989 22.7805Z" fill="#075F58"/>
</svg>
