<svg width="417" height="325" viewBox="0 0 417 325" fill="none" xmlns="http://www.w3.org/2000/svg">
<path d="M0.420583 225.885C26.3129 185.607 86.9888 146.358 171.922 184.871C235.356 213.634 350.773 294.865 415.877 199.984" stroke="#1B337D"/>
<path d="M0.420583 239.457C26.3129 199.18 86.9888 159.931 171.922 198.443C235.356 227.207 350.773 308.437 415.877 213.556" stroke="#1B337D"/>
<path d="M0.420583 211.457C26.3129 171.18 86.9888 131.931 171.922 170.443C235.356 199.207 350.773 280.437 415.877 185.556" stroke="#1B337D"/>
<path d="M0.420583 254.457C26.3129 214.18 86.9888 174.931 171.922 213.443C235.356 242.207 350.773 323.437 415.877 228.556" stroke="#1B337D"/>
<path d="M0.420583 269.457C26.3129 229.18 86.9888 189.931 171.922 228.443C235.356 257.207 350.773 338.437 415.877 243.556" stroke="#1B337D"/>
</svg>
