<svg width="653" height="208" viewBox="0 0 653 208" fill="none" xmlns="http://www.w3.org/2000/svg">
<mask id="path-1-outside-1_1_1012" maskUnits="userSpaceOnUse" x="0.349121" y="-253.964" width="653" height="687" fill="black">
<rect fill="white" x="0.349121" y="-253.964" width="653" height="687"/>
<path d="M327.916 -252.964C400.06 -252.964 462.309 -234.769 514.662 -198.377C567.653 -162.624 606.279 -112.825 630.54 -48.9798H580.741C567.34 -84.2683 547.687 -114.555 521.786 -139.843C521.878 -28.1879 522.136 282.065 522.136 288.121C522.136 295.509 481.262 320.181 481.262 320.181L481.041 -127.122L362.828 75.3464H464.582V111.652H347.065V378.972H305.894V111.652H188.587V75.3464H289.965L171.919 -125.551V320.181C171.844 320.144 134.396 301.453 134.396 283.586C134.396 268.934 132.249 -29.4214 131.474 -136.825C112.574 -118.02 96.3331 -96.08 82.7515 -71.0061C57.852 -25.0379 45.4019 28.5916 45.4019 89.8825C45.4019 151.173 57.852 204.803 82.7515 250.771C107.651 296.739 141.488 332.173 184.264 357.073C227.04 381.334 274.924 393.465 327.916 393.465C378.991 393.464 425.279 381.972 466.778 358.988C508.277 336.004 541.476 303.443 566.375 261.305C591.275 218.529 605.001 168.731 607.555 111.909H539.013V75.5173H651.609V104.248C649.693 166.815 634.69 222.999 606.598 272.798C578.506 322.596 540.199 361.542 491.677 389.633C443.155 417.725 388.568 431.771 327.916 431.771C265.986 431.771 210.122 417.407 160.323 388.676C110.524 359.308 71.5785 318.766 43.4868 267.051C15.3952 214.699 1.34913 155.643 1.34912 89.8825C1.34912 23.4841 15.3952 -35.5722 43.4868 -87.2864C71.5785 -139.639 110.524 -180.181 160.323 -208.911C210.122 -238.28 265.986 -252.964 327.916 -252.964ZM327.916 -214.658C274.924 -214.658 227.04 -202.207 184.264 -177.308C184.255 -177.302 184.245 -177.298 184.236 -177.292L327.272 66.8991L469.953 -179.11C429.162 -202.808 381.816 -214.657 327.916 -214.658Z"/>
</mask>
<path d="M327.916 -252.964V-253.964V-253.964V-252.964ZM514.662 -198.377L514.091 -197.556L514.102 -197.548L514.662 -198.377ZM630.54 -48.9798V-47.9798H631.989L631.474 -49.335L630.54 -48.9798ZM580.741 -48.9798L579.806 -48.6248L580.051 -47.9798H580.741V-48.9798ZM521.786 -139.843L522.484 -140.559L520.784 -142.219L520.786 -139.842L521.786 -139.843ZM522.136 288.121L523.136 288.121V288.121H522.136ZM481.262 320.181L480.262 320.182L480.263 321.953L481.779 321.037L481.262 320.181ZM481.041 -127.122L482.041 -127.123L482.039 -130.815L480.177 -127.627L481.041 -127.122ZM362.828 75.3464L361.964 74.8422L361.086 76.3464H362.828V75.3464ZM464.582 75.3464H465.582V74.3464H464.582V75.3464ZM464.582 111.652V112.652H465.582V111.652H464.582ZM347.065 111.652V110.652H346.065V111.652H347.065ZM347.065 378.972V379.972H348.065V378.972H347.065ZM305.894 378.972H304.894V379.972H305.894V378.972ZM305.894 111.652H306.894V110.652H305.894V111.652ZM188.587 111.652H187.587V112.652H188.587V111.652ZM188.587 75.3464V74.3464H187.587V75.3464H188.587ZM289.965 75.3464V76.3464H291.713L290.828 74.8398L289.965 75.3464ZM171.919 -125.551L172.782 -126.058L170.919 -129.227V-125.551H171.919ZM171.919 320.181L171.473 321.076L172.919 321.798V320.181H171.919ZM134.396 283.586H133.396V283.586H134.396ZM131.474 -136.825L132.474 -136.833L132.457 -139.214L130.769 -137.534L131.474 -136.825ZM82.7515 -71.0061L81.8722 -71.4824V-71.4824L82.7515 -71.0061ZM45.4019 89.8825H44.4019V89.8825H45.4019ZM82.7515 250.771L81.8722 251.247V251.247L82.7515 250.771ZM184.264 357.073L183.761 357.937L183.771 357.943L184.264 357.073ZM327.916 393.465V394.465V394.465V393.465ZM466.778 358.988L467.262 359.863V359.863L466.778 358.988ZM566.375 261.305L567.236 261.814L567.24 261.808L566.375 261.305ZM607.555 111.909L608.554 111.954L608.601 110.909H607.555V111.909ZM539.013 111.909H538.013V112.909H539.013V111.909ZM539.013 75.5173V74.5173H538.013V75.5173H539.013ZM651.609 75.5173H652.609V74.5173H651.609V75.5173ZM651.609 104.248L652.608 104.278L652.609 104.263V104.248H651.609ZM606.598 272.798L607.469 273.289V273.289L606.598 272.798ZM491.677 389.633L492.178 390.499V390.499L491.677 389.633ZM327.916 431.771V432.771V432.771V431.771ZM160.323 388.676L159.815 389.538L159.823 389.543L160.323 388.676ZM43.4868 267.051L42.6056 267.524L42.6081 267.529L43.4868 267.051ZM1.34912 89.8825H0.349121V89.8825H1.34912ZM43.4868 -87.2864L44.3656 -86.8091L44.368 -86.8136L43.4868 -87.2864ZM160.323 -208.911L160.822 -208.045L160.831 -208.05L160.323 -208.911ZM327.916 -214.658V-215.658V-215.658V-214.658ZM184.264 -177.308L183.761 -178.172V-178.172L184.264 -177.308ZM184.236 -177.292L183.733 -178.156L182.866 -177.652L183.373 -176.787L184.236 -177.292ZM327.272 66.8991L326.409 67.4046L327.276 68.8849L328.137 67.4008L327.272 66.8991ZM469.953 -179.11L470.818 -178.608L471.319 -179.472L470.455 -179.974L469.953 -179.11ZM327.916 -252.964V-251.964C399.884 -251.964 461.927 -233.816 514.091 -197.556L514.662 -198.377L515.232 -199.198C462.691 -235.721 400.236 -253.964 327.916 -253.964V-252.964ZM514.662 -198.377L514.102 -197.548C566.911 -161.919 605.412 -112.29 629.605 -48.6246L630.54 -48.9798L631.474 -49.335C607.145 -113.359 568.395 -163.33 515.221 -199.206L514.662 -198.377ZM630.54 -48.9798V-49.9798H580.741V-48.9798V-47.9798H630.54V-48.9798ZM580.741 -48.9798L581.676 -49.3348C568.225 -84.7533 548.495 -115.165 522.484 -140.559L521.786 -139.843L521.087 -139.128C546.88 -113.946 566.454 -83.7833 579.806 -48.6248L580.741 -48.9798ZM521.786 -139.843L520.786 -139.842C520.878 -28.1865 521.136 282.065 521.136 288.121H522.136H523.136C523.136 282.064 522.878 -28.1893 522.786 -139.844L521.786 -139.843ZM522.136 288.121L521.136 288.121C521.136 288.363 521.048 288.731 520.786 289.244C520.529 289.748 520.135 290.332 519.602 290.991C518.537 292.308 516.988 293.835 515.091 295.494C511.301 298.81 506.228 302.561 501.129 306.1C496.035 309.635 490.938 312.942 487.113 315.366C485.201 316.578 483.608 317.568 482.494 318.256C481.936 318.599 481.499 318.867 481.201 319.049C481.052 319.139 480.938 319.209 480.861 319.255C480.823 319.279 480.793 319.296 480.774 319.308C480.764 319.314 480.757 319.318 480.752 319.321C480.75 319.322 480.748 319.324 480.747 319.324C480.746 319.325 480.746 319.325 480.746 319.325C480.746 319.325 480.745 319.325 481.262 320.181C481.779 321.037 481.779 321.037 481.78 321.037C481.78 321.037 481.78 321.037 481.781 321.036C481.782 321.035 481.784 321.034 481.787 321.033C481.792 321.03 481.8 321.025 481.81 321.019C481.829 321.007 481.859 320.989 481.898 320.965C481.976 320.918 482.091 320.848 482.242 320.756C482.542 320.573 482.983 320.303 483.543 319.958C484.664 319.267 486.264 318.272 488.184 317.055C492.023 314.623 497.145 311.3 502.269 307.743C507.388 304.191 512.534 300.389 516.408 297C518.342 295.308 519.988 293.695 521.157 292.249C521.742 291.525 522.226 290.822 522.568 290.153C522.905 289.493 523.136 288.802 523.136 288.121L522.136 288.121ZM481.262 320.181L482.262 320.181L482.041 -127.123L481.041 -127.122L480.041 -127.122L480.262 320.182L481.262 320.181ZM481.041 -127.122L480.177 -127.627L361.964 74.8422L362.828 75.3464L363.691 75.8506L481.904 -126.618L481.041 -127.122ZM362.828 75.3464V76.3464H464.582V75.3464V74.3464H362.828V75.3464ZM464.582 75.3464H463.582V111.652H464.582H465.582V75.3464H464.582ZM464.582 111.652V110.652H347.065V111.652V112.652H464.582V111.652ZM347.065 111.652H346.065V378.972H347.065H348.065V111.652H347.065ZM347.065 378.972V377.972H305.894V378.972V379.972H347.065V378.972ZM305.894 378.972H306.894V111.652H305.894H304.894V378.972H305.894ZM305.894 111.652V110.652H188.587V111.652V112.652H305.894V111.652ZM188.587 111.652H189.587V75.3464H188.587H187.587V111.652H188.587ZM188.587 75.3464V76.3464H289.965V75.3464V74.3464H188.587V75.3464ZM289.965 75.3464L290.828 74.8398L172.782 -126.058L171.919 -125.551L171.057 -125.044L289.103 75.853L289.965 75.3464ZM171.919 -125.551H170.919V320.181H171.919H172.919V-125.551H171.919ZM171.919 320.181L172.366 319.287C172.346 319.277 163.025 314.624 153.723 307.765C149.07 304.333 144.459 300.377 141.021 296.2C137.568 292.007 135.396 287.712 135.396 283.586H134.396H133.396C133.396 288.393 135.906 293.135 139.477 297.472C143.062 301.826 147.818 305.895 152.536 309.374C161.977 316.336 171.418 321.048 171.473 321.076L171.919 320.181ZM134.396 283.586H135.396C135.396 268.929 133.249 -29.433 132.474 -136.833L131.474 -136.825L130.474 -136.818C131.249 -29.4098 133.396 268.939 133.396 283.586H134.396ZM131.474 -136.825L130.769 -137.534C111.795 -118.656 95.497 -96.6359 81.8722 -71.4824L82.7515 -71.0061L83.6308 -70.5299C97.1693 -95.5241 113.353 -117.385 132.179 -136.117L131.474 -136.825ZM82.7515 -71.0061L81.8722 -71.4824C56.8809 -25.3446 44.4019 28.454 44.4019 89.8825H45.4019H46.4019C46.4019 28.7292 58.8232 -24.7312 83.6308 -70.5299L82.7515 -71.0061ZM45.4019 89.8825H44.4019C44.4019 151.311 56.8809 205.11 81.8722 251.247L82.7515 250.771L83.6308 250.295C58.8232 204.496 46.4019 151.036 46.4019 89.8825H45.4019ZM82.7515 250.771L81.8722 251.247C106.854 297.368 140.818 332.94 183.761 357.937L184.264 357.073L184.767 356.209C142.159 331.407 108.448 296.111 83.6308 250.295L82.7515 250.771ZM184.264 357.073L183.771 357.943C226.709 382.296 274.765 394.465 327.916 394.465V393.465V392.465C275.083 392.465 227.372 380.372 184.758 356.203L184.264 357.073ZM327.916 393.465V394.465C379.147 394.464 425.604 382.935 467.262 359.863L466.778 358.988L466.293 358.113C424.954 381.009 378.835 392.464 327.916 392.465V393.465ZM466.778 358.988L467.262 359.863C508.922 336.79 542.249 304.1 567.236 261.814L566.375 261.305L565.515 260.797C540.703 302.786 507.631 335.218 466.293 358.113L466.778 358.988ZM566.375 261.305L567.24 261.808C592.232 218.873 605.994 168.913 608.554 111.954L607.555 111.909L606.556 111.864C604.009 168.549 590.318 218.185 565.511 260.802L566.375 261.305ZM607.555 111.909V110.909H539.013V111.909V112.909H607.555V111.909ZM539.013 111.909H540.013V75.5173H539.013H538.013V111.909H539.013ZM539.013 75.5173V76.5173H651.609V75.5173V74.5173H539.013V75.5173ZM651.609 75.5173H650.609V104.248H651.609H652.609V75.5173H651.609ZM651.609 104.248L650.609 104.217C648.698 166.639 633.732 222.661 605.727 272.306L606.598 272.798L607.469 273.289C635.648 223.336 650.689 166.992 652.608 104.278L651.609 104.248ZM606.598 272.798L605.727 272.306C577.721 321.953 539.541 360.768 491.176 388.768L491.677 389.633L492.178 390.499C540.858 362.316 579.292 323.24 607.469 273.289L606.598 272.798ZM491.677 389.633L491.176 388.768C442.819 416.764 388.407 430.771 327.916 430.771V431.771V432.771C388.729 432.771 443.492 418.686 492.178 390.499L491.677 389.633ZM327.916 431.771V430.771C266.148 430.771 210.458 416.446 160.822 387.81L160.323 388.676L159.823 389.543C209.786 418.367 265.825 432.771 327.916 432.771V431.771ZM160.323 388.676L160.831 387.815C111.191 358.54 72.3724 318.132 44.3655 266.574L43.4868 267.051L42.6081 267.529C70.7847 319.399 109.857 360.075 159.815 389.538L160.323 388.676ZM43.4868 267.051L44.368 266.579C16.3624 214.386 2.34913 155.496 2.34912 89.8825H1.34912H0.349121C0.34913 155.79 14.428 215.011 42.6057 267.524L43.4868 267.051ZM1.34912 89.8825H2.34912C2.34912 23.6291 16.3633 -35.2593 44.3655 -86.8091L43.4868 -87.2864L42.6081 -87.7637C14.4272 -35.8851 0.349121 23.339 0.349121 89.8825H1.34912ZM43.4868 -87.2864L44.368 -86.8136C72.3747 -139.008 111.19 -179.411 160.822 -208.045L160.323 -208.911L159.823 -209.778C109.857 -180.951 70.7823 -140.27 42.6057 -87.7592L43.4868 -87.2864ZM160.323 -208.911L160.831 -208.05C210.465 -237.321 266.152 -251.964 327.916 -251.964V-252.964V-253.964C265.821 -253.964 209.779 -239.239 159.815 -209.773L160.323 -208.911ZM327.916 -214.658V-215.658C274.761 -215.658 226.701 -203.167 183.761 -178.172L184.264 -177.308L184.767 -176.444C227.38 -201.248 275.088 -213.658 327.916 -213.658V-214.658ZM184.264 -177.308L183.761 -178.172C183.769 -178.176 183.774 -178.18 183.777 -178.181C183.779 -178.182 183.78 -178.183 183.777 -178.181C183.775 -178.18 183.769 -178.177 183.762 -178.173C183.755 -178.169 183.745 -178.164 183.733 -178.156L184.236 -177.292L184.739 -176.428C184.732 -176.424 184.726 -176.421 184.723 -176.419C184.721 -176.418 184.72 -176.417 184.723 -176.419C184.725 -176.42 184.731 -176.423 184.738 -176.427C184.745 -176.431 184.755 -176.437 184.767 -176.444L184.264 -177.308ZM184.236 -177.292L183.373 -176.787L326.409 67.4046L327.272 66.8991L328.135 66.3937L185.099 -177.798L184.236 -177.292ZM327.272 66.8991L328.137 67.4008L470.818 -178.608L469.953 -179.11L469.088 -179.611L326.407 66.3974L327.272 66.8991ZM469.953 -179.11L470.455 -179.974C429.491 -203.773 381.967 -215.657 327.916 -215.658V-214.658V-213.658C381.665 -213.657 428.833 -201.842 469.45 -178.245L469.953 -179.11Z" fill="#075F58" mask="url(#path-1-outside-1_1_1012)"/>
<mask id="path-3-outside-2_1_1012" maskUnits="userSpaceOnUse" x="0" y="-240.387" width="653" height="687" fill="black">
<rect fill="white" y="-240.387" width="653" height="687"/>
<path d="M327.566 -239.387C399.711 -239.387 461.96 -221.191 514.312 -184.8C567.304 -149.047 605.929 -99.2472 630.19 -35.4024H580.392C566.991 -70.691 547.338 -100.978 521.437 -126.266C521.529 -14.6105 521.787 295.642 521.787 301.698C521.787 309.086 480.913 333.759 480.913 333.759L480.691 -113.545L362.479 88.9237H464.232V125.229H346.716V392.55H305.545V125.229H188.238V88.9237H289.616L171.57 -111.974V333.759C171.495 333.721 134.047 315.03 134.047 297.163C134.047 282.512 131.9 -15.844 131.125 -123.248C112.225 -104.443 95.984 -82.5027 82.4023 -57.4288C57.5029 -11.4606 45.0527 42.1689 45.0527 103.46C45.0527 164.751 57.5029 218.38 82.4023 264.349C107.302 310.317 141.139 345.751 183.915 370.65C226.691 394.911 274.575 407.042 327.566 407.042C378.642 407.042 424.93 395.549 466.429 372.565C507.928 349.581 541.127 317.02 566.026 274.883C590.926 232.107 604.652 182.308 607.206 125.486H538.664V89.0946H651.26V117.825C649.344 180.393 634.341 236.576 606.249 286.375C578.157 336.174 539.85 375.119 491.328 403.211C442.806 431.303 388.219 445.348 327.566 445.349C265.637 445.349 209.773 430.984 159.974 402.254C110.175 372.885 71.2294 332.343 43.1377 280.629C15.0461 228.276 1.00001 169.22 1 103.46C1 37.0614 15.0461 -21.9948 43.1377 -73.7091C71.2294 -126.062 110.175 -166.604 159.974 -195.334C209.773 -224.703 265.637 -239.387 327.566 -239.387ZM327.566 -201.08C274.575 -201.08 226.691 -188.63 183.915 -163.731C183.906 -163.725 183.896 -163.72 183.887 -163.715L326.923 80.4765L469.604 -165.532C428.812 -189.23 381.467 -201.08 327.566 -201.08Z"/>
</mask>
<path d="M327.566 -239.387V-240.387V-240.387V-239.387ZM514.312 -184.8L513.742 -183.979L513.753 -183.971L514.312 -184.8ZM630.19 -35.4024V-34.4024H631.64L631.125 -35.7577L630.19 -35.4024ZM580.392 -35.4024L579.457 -35.0474L579.702 -34.4024H580.392V-35.4024ZM521.437 -126.266L522.135 -126.981L520.435 -128.641L520.437 -126.265L521.437 -126.266ZM521.787 301.698L522.787 301.698V301.698H521.787ZM480.913 333.759L479.913 333.759L479.914 335.53L481.43 334.615L480.913 333.759ZM480.691 -113.545L481.691 -113.546L481.69 -117.238L479.828 -114.049L480.691 -113.545ZM362.479 88.9237L361.615 88.4195L360.737 89.9237H362.479V88.9237ZM464.232 88.9237H465.232V87.9237H464.232V88.9237ZM464.232 125.229V126.229H465.232V125.229H464.232ZM346.716 125.229V124.229H345.716V125.229H346.716ZM346.716 392.55V393.55H347.716V392.55H346.716ZM305.545 392.55H304.545V393.55H305.545V392.55ZM305.545 125.229H306.545V124.229H305.545V125.229ZM188.238 125.229H187.238V126.229H188.238V125.229ZM188.238 88.9237V87.9237H187.238V88.9237H188.238ZM289.616 88.9237V89.9237H291.364L290.478 88.4171L289.616 88.9237ZM171.57 -111.974L172.432 -112.48L170.57 -115.649V-111.974H171.57ZM171.57 333.759L171.124 334.654L172.57 335.375V333.759H171.57ZM134.047 297.163H133.047V297.163H134.047ZM131.125 -123.248L132.125 -123.255L132.108 -125.637L130.42 -123.957L131.125 -123.248ZM82.4023 -57.4288L81.523 -57.9051V-57.9051L82.4023 -57.4288ZM45.0527 103.46H44.0527V103.46H45.0527ZM82.4023 264.349L81.523 264.825V264.825L82.4023 264.349ZM183.915 370.65L183.412 371.515L183.422 371.52L183.915 370.65ZM327.566 407.042V408.042V408.042V407.042ZM466.429 372.565L466.913 373.44V373.44L466.429 372.565ZM566.026 274.883L566.887 275.391L566.891 275.386L566.026 274.883ZM607.206 125.486L608.205 125.531L608.252 124.486H607.206V125.486ZM538.664 125.486H537.664V126.486H538.664V125.486ZM538.664 89.0946V88.0946H537.664V89.0946H538.664ZM651.26 89.0946H652.26V88.0946H651.26V89.0946ZM651.26 117.825L652.259 117.856L652.26 117.84V117.825H651.26ZM606.249 286.375L607.12 286.866V286.866L606.249 286.375ZM491.328 403.211L491.829 404.076V404.076L491.328 403.211ZM327.566 445.349V446.349V446.349V445.349ZM159.974 402.254L159.466 403.115L159.474 403.12L159.974 402.254ZM43.1377 280.629L42.2565 281.102L42.259 281.106L43.1377 280.629ZM1 103.46H0V103.46H1ZM43.1377 -73.7091L44.0164 -73.2317L44.0189 -73.2363L43.1377 -73.7091ZM159.974 -195.334L160.473 -194.468L160.482 -194.473L159.974 -195.334ZM327.566 -201.08V-202.08V-202.08V-201.08ZM183.915 -163.731L183.412 -164.595V-164.595L183.915 -163.731ZM183.887 -163.715L183.384 -164.579L182.517 -164.075L183.024 -163.21L183.887 -163.715ZM326.923 80.4765L326.06 80.9819L326.927 82.4623L327.788 80.9782L326.923 80.4765ZM469.604 -165.532L470.469 -165.031L470.97 -165.895L470.106 -166.397L469.604 -165.532ZM327.566 -239.387V-238.387C399.535 -238.387 461.578 -220.239 513.742 -183.979L514.312 -184.8L514.883 -185.621C462.342 -222.144 399.887 -240.387 327.566 -240.387V-239.387ZM514.312 -184.8L513.753 -183.971C566.561 -148.341 605.063 -98.7131 629.256 -35.0472L630.19 -35.4024L631.125 -35.7577C606.796 -99.7814 568.046 -149.752 514.872 -185.629L514.312 -184.8ZM630.19 -35.4024V-36.4024H580.392V-35.4024V-34.4024H630.19V-35.4024ZM580.392 -35.4024L581.326 -35.7574C567.876 -71.176 548.145 -101.588 522.135 -126.981L521.437 -126.266L520.738 -125.55C546.531 -100.368 566.105 -70.206 579.457 -35.0474L580.392 -35.4024ZM521.437 -126.266L520.437 -126.265C520.529 -14.6092 520.787 295.642 520.787 301.698H521.787H522.787C522.787 295.641 522.529 -14.6119 522.437 -126.267L521.437 -126.266ZM521.787 301.698L520.787 301.698C520.787 301.941 520.699 302.308 520.437 302.821C520.18 303.325 519.786 303.91 519.253 304.568C518.188 305.885 516.639 307.412 514.742 309.072C510.952 312.387 505.879 316.139 500.78 319.677C495.686 323.213 490.589 326.52 486.764 328.944C484.852 330.155 483.259 331.146 482.145 331.833C481.587 332.176 481.15 332.444 480.852 332.626C480.703 332.717 480.588 332.786 480.512 332.833C480.473 332.856 480.444 332.874 480.425 332.885C480.415 332.891 480.408 332.895 480.403 332.898C480.401 332.9 480.399 332.901 480.398 332.902C480.397 332.902 480.397 332.902 480.397 332.902C480.396 332.902 480.396 332.903 480.913 333.759C481.43 334.615 481.43 334.615 481.43 334.614C481.431 334.614 481.431 334.614 481.432 334.614C481.433 334.613 481.435 334.612 481.438 334.61C481.443 334.607 481.45 334.602 481.46 334.596C481.48 334.584 481.51 334.566 481.549 334.543C481.627 334.495 481.742 334.425 481.893 334.334C482.193 334.15 482.634 333.881 483.194 333.535C484.315 332.844 485.915 331.85 487.835 330.633C491.674 328.2 496.796 324.877 501.92 321.321C507.039 317.768 512.185 313.966 516.059 310.577C517.993 308.885 519.638 307.272 520.808 305.826C521.393 305.103 521.877 304.399 522.219 303.73C522.556 303.07 522.787 302.379 522.787 301.698L521.787 301.698ZM480.913 333.759L481.913 333.758L481.691 -113.546L480.691 -113.545L479.691 -113.545L479.913 333.759L480.913 333.759ZM480.691 -113.545L479.828 -114.049L361.615 88.4195L362.479 88.9237L363.342 89.4279L481.555 -113.041L480.691 -113.545ZM362.479 88.9237V89.9237H464.232V88.9237V87.9237H362.479V88.9237ZM464.232 88.9237H463.232V125.229H464.232H465.232V88.9237H464.232ZM464.232 125.229V124.229H346.716V125.229V126.229H464.232V125.229ZM346.716 125.229H345.716V392.55H346.716H347.716V125.229H346.716ZM346.716 392.55V391.55H305.545V392.55V393.55H346.716V392.55ZM305.545 392.55H306.545V125.229H305.545H304.545V392.55H305.545ZM305.545 125.229V124.229H188.238V125.229V126.229H305.545V125.229ZM188.238 125.229H189.238V88.9237H188.238H187.238V125.229H188.238ZM188.238 88.9237V89.9237H289.616V88.9237V87.9237H188.238V88.9237ZM289.616 88.9237L290.478 88.4171L172.432 -112.48L171.57 -111.974L170.708 -111.467L288.754 89.4304L289.616 88.9237ZM171.57 -111.974H170.57V333.759H171.57H172.57V-111.974H171.57ZM171.57 333.759L172.017 332.864C171.997 332.854 162.676 328.202 153.374 321.342C148.721 317.911 144.11 313.954 140.671 309.778C137.218 305.584 135.047 301.289 135.047 297.163H134.047H133.047C133.047 301.97 135.557 306.712 139.127 311.049C142.713 315.404 147.468 319.472 152.187 322.952C161.627 329.913 171.068 334.626 171.124 334.654L171.57 333.759ZM134.047 297.163H135.047C135.047 282.507 132.9 -15.8556 132.125 -123.255L131.125 -123.248L130.125 -123.241C130.9 -15.8324 133.047 282.516 133.047 297.163H134.047ZM131.125 -123.248L130.42 -123.957C111.446 -105.078 95.1479 -83.0586 81.523 -57.9051L82.4023 -57.4288L83.2816 -56.9525C96.8202 -81.9467 113.004 -103.807 131.83 -122.539L131.125 -123.248ZM82.4023 -57.4288L81.523 -57.9051C56.5318 -11.7673 44.0527 42.0313 44.0527 103.46H45.0527H46.0527C46.0527 42.3065 58.4741 -11.1539 83.2816 -56.9525L82.4023 -57.4288ZM45.0527 103.46H44.0527C44.0527 164.888 56.5317 218.687 81.523 264.825L82.4023 264.349L83.2816 263.872C58.4741 218.074 46.0527 164.613 46.0527 103.46H45.0527ZM82.4023 264.349L81.523 264.825C106.505 310.945 140.468 346.517 183.412 371.515L183.915 370.65L184.418 369.786C141.81 344.984 108.099 309.689 83.2816 263.872L82.4023 264.349ZM183.915 370.65L183.422 371.52C226.36 395.873 274.416 408.042 327.566 408.042V407.042V406.042C274.734 406.042 227.022 393.95 184.408 369.78L183.915 370.65ZM327.566 407.042V408.042C378.798 408.042 425.255 396.513 466.913 373.44L466.429 372.565L465.944 371.691C424.605 394.586 378.486 406.042 327.566 406.042V407.042ZM466.429 372.565L466.913 373.44C508.573 350.367 541.9 317.677 566.887 275.391L566.026 274.883L565.165 274.374C540.354 316.363 507.282 348.796 465.944 371.691L466.429 372.565ZM566.026 274.883L566.891 275.386C591.883 232.451 605.645 182.49 608.205 125.531L607.206 125.486L606.207 125.441C603.659 182.126 589.969 231.763 565.162 274.38L566.026 274.883ZM607.206 125.486V124.486H538.664V125.486V126.486H607.206V125.486ZM538.664 125.486H539.664V89.0946H538.664H537.664V125.486H538.664ZM538.664 89.0946V90.0946H651.26V89.0946V88.0946H538.664V89.0946ZM651.26 89.0946H650.26V117.825H651.26H652.26V89.0946H651.26ZM651.26 117.825L650.26 117.794C648.349 180.216 633.383 236.239 605.378 285.884L606.249 286.375L607.12 286.866C635.298 236.913 650.339 180.569 652.259 117.856L651.26 117.825ZM606.249 286.375L605.378 285.884C577.372 335.53 539.191 374.345 490.827 402.345L491.328 403.211L491.829 404.076C540.509 375.893 578.942 336.817 607.12 286.866L606.249 286.375ZM491.328 403.211L490.827 402.345C442.47 430.342 388.058 444.348 327.566 444.349V445.349V446.349C388.38 446.348 443.143 432.263 491.829 404.076L491.328 403.211ZM327.566 445.349V444.349C265.798 444.349 210.109 430.023 160.473 401.388L159.974 402.254L159.474 403.12C209.436 431.944 265.476 446.349 327.566 446.349V445.349ZM159.974 402.254L160.482 401.392C110.842 372.118 72.0233 331.71 44.0164 280.151L43.1377 280.629L42.259 281.106C70.4355 332.977 109.508 373.653 159.466 403.115L159.974 402.254ZM43.1377 280.629L44.0189 280.156C16.0133 227.964 2.00001 169.073 2 103.46H1H0C8.82149e-06 169.367 14.0788 228.589 42.2565 281.102L43.1377 280.629ZM1 103.46H2C2 37.2065 16.0141 -21.682 44.0164 -73.2318L43.1377 -73.7091L42.259 -74.1864C14.078 -22.3077 0 36.9164 0 103.46H1ZM43.1377 -73.7091L44.0189 -73.2363C72.0256 -125.431 110.841 -165.834 160.473 -194.468L159.974 -195.334L159.474 -196.2C109.508 -167.374 70.4332 -126.693 42.2565 -74.1819L43.1377 -73.7091ZM159.974 -195.334L160.482 -194.473C210.116 -223.744 265.802 -238.387 327.566 -238.387V-239.387V-240.387C265.471 -240.387 209.429 -225.661 159.466 -196.195L159.974 -195.334ZM327.566 -201.08V-202.08C274.411 -202.08 226.352 -189.59 183.412 -164.595L183.915 -163.731L184.418 -162.866C227.031 -187.671 274.739 -200.08 327.566 -200.08V-201.08ZM183.915 -163.731L183.412 -164.595C183.419 -164.599 183.425 -164.602 183.427 -164.604C183.43 -164.605 183.431 -164.605 183.428 -164.604C183.426 -164.603 183.42 -164.6 183.413 -164.596C183.406 -164.592 183.396 -164.586 183.384 -164.579L183.887 -163.715L184.39 -162.851C184.382 -162.846 184.377 -162.843 184.374 -162.842C184.372 -162.841 184.371 -162.84 184.374 -162.842C184.376 -162.843 184.382 -162.846 184.389 -162.85C184.396 -162.854 184.406 -162.859 184.418 -162.866L183.915 -163.731ZM183.887 -163.715L183.024 -163.21L326.06 80.9819L326.923 80.4765L327.786 79.971L184.75 -164.22L183.887 -163.715ZM326.923 80.4765L327.788 80.9782L470.469 -165.031L469.604 -165.532L468.738 -166.034L326.058 79.9748L326.923 80.4765ZM469.604 -165.532L470.106 -166.397C429.142 -190.196 381.618 -202.08 327.566 -202.08V-201.08V-200.08C381.316 -200.08 428.483 -188.265 469.101 -164.668L469.604 -165.532Z" fill="#01D1B8" mask="url(#path-3-outside-2_1_1012)"/>
</svg>
