<svg width="18" height="18" viewBox="0 0 18 18" fill="none" xmlns="http://www.w3.org/2000/svg">
<path fill-rule="evenodd" clip-rule="evenodd" d="M0.85431 16.4174C0.382555 15.9457 0.351445 15.2119 0.784823 14.7785L14.7786 0.784702C15.212 0.351324 15.9458 0.382434 16.4175 0.854188C16.8893 1.32594 16.9204 2.0597 16.487 2.49308L2.4932 16.4869C2.05982 16.9203 1.32607 16.8892 0.85431 16.4174Z" fill="#075F58"/>
<path fill-rule="evenodd" clip-rule="evenodd" d="M16.4174 16.4174C16.8892 15.9457 16.9203 15.2119 16.4869 14.7785L2.49308 0.784702C2.0597 0.351324 1.32595 0.382434 0.854192 0.854188C0.382437 1.32594 0.351327 2.0597 0.784705 2.49308L14.7785 16.4869C15.2119 16.9203 15.9457 16.8892 16.4174 16.4174Z" fill="#075F58"/>
</svg>
