<svg width="426" height="221" viewBox="0 0 426 221" fill="none" xmlns="http://www.w3.org/2000/svg">
<path d="M393.452 0.0162354C394.77 40.6283 369.27 97.2198 285.118 111.049C222.268 121.378 87.5 122.374 87.5 220.016" stroke="#01D1B8"/>
<path d="M425.452 0.0162354C426.77 40.6283 401.27 97.2198 317.118 111.049C254.268 121.378 119.5 122.374 119.5 220.016" stroke="#01D1B8"/>
<path d="M364.223 0.0162354C365.542 40.6283 340.042 97.2198 255.89 111.049C193.04 121.378 58.2715 122.374 58.2715 220.016" stroke="#01D1B8"/>
<path d="M337.342 0.0162354C338.661 40.6283 313.161 97.2198 229.009 111.049C166.159 121.378 31.3906 122.374 31.3906 220.016" stroke="#01D1B8"/>
<path d="M306.452 0.0162354C307.77 40.6283 282.27 97.2198 198.118 111.049C135.268 121.378 0.5 122.374 0.5 220.016" stroke="#01D1B8"/>
</svg>
