<svg width="426" height="221" viewBox="0 0 426 221" fill="none" xmlns="http://www.w3.org/2000/svg">
<path d="M32.5481 0.0162354C31.2296 40.6283 56.73 97.2198 140.882 111.049C203.732 121.378 338.5 122.374 338.5 220.016" stroke="#E75779"/>
<path d="M0.548147 0.0162354C-0.770363 40.6283 24.73 97.2198 108.882 111.049C171.732 121.378 306.5 122.374 306.5 220.016" stroke="#E75779"/>
<path d="M61.7767 0.0162354C60.4582 40.6283 85.9585 97.2198 170.11 111.049C232.96 121.378 367.729 122.374 367.729 220.016" stroke="#E75779"/>
<path d="M88.6575 0.0162354C87.339 40.6283 112.839 97.2198 196.991 111.049C259.841 121.378 394.609 122.374 394.609 220.016" stroke="#E75779"/>
<path d="M119.548 0.0162354C118.23 40.6283 143.73 97.2198 227.882 111.049C290.732 121.378 425.5 122.374 425.5 220.016" stroke="#E75779"/>
</svg>
