<svg width="45" height="47" viewBox="0 0 45 47" fill="none" xmlns="http://www.w3.org/2000/svg">
<path d="M39.5866 13.9371C38.2779 10.491 36.0969 7.74283 33.0434 5.69261C30.0335 3.6424 26.4565 2.61729 22.3124 2.61729C18.6919 2.61729 15.4202 3.46791 12.4976 5.16916C9.57494 6.8704 7.26299 9.2914 5.56175 12.4322C3.86051 15.5729 3.00989 19.2371 3.00989 23.4248C3.00989 27.6125 3.86051 31.2767 5.56175 34.4174C7.26299 37.5582 9.57494 39.9792 12.4976 41.6804C15.4202 43.338 18.6919 44.1669 22.3124 44.1669C25.8022 44.1669 28.9647 43.3817 31.8001 41.8113C34.6355 40.2409 36.9039 38.0162 38.6051 35.1372C40.3064 32.2145 41.2442 28.8121 41.4187 24.9297H36.7356V22.4433H44.4286V24.4063C44.2977 28.6812 43.2726 32.5199 41.3533 35.9224C39.4339 39.3249 36.8166 41.9858 33.5014 43.9051C30.1861 45.8245 26.4565 46.7842 22.3124 46.7842C18.0812 46.7842 14.2643 45.8027 10.8618 43.8397C7.45929 41.8331 4.79838 39.0631 2.87902 35.5298C0.959675 31.9528 0 27.9178 0 23.4248C0 18.8881 0.959675 14.8531 2.87902 11.3198C4.79838 7.74283 7.45929 4.97286 10.8618 3.00989C14.2643 1.0033 18.0812 0 22.3124 0C27.2417 0 31.4948 1.24321 35.0718 3.72964C38.6924 6.17245 41.3315 9.57494 42.9891 13.9371H39.5866Z" fill="#075F58"/>
<path d="M20.808 24.9122L12.793 24.9122L12.793 22.4316L31.6502 22.4316L31.6502 24.9122L23.621 24.9122L23.621 43.1767H20.808L20.808 24.9122Z" fill="#075F58"/>
<path fill-rule="evenodd" clip-rule="evenodd" d="M22.2687 21.8545L33.2117 2.98696L35.5566 5.02996C35.5566 5.02996 35.5827 36.4645 35.5827 36.9693C35.5827 37.4741 32.79 39.1598 32.79 39.1598L32.7749 8.59805L22.9362 25.4492L22.9084 25.4973H21.5213L21.4931 25.4496L11.6544 8.70545V39.1598C11.6544 39.1598 9.09058 37.8814 9.09058 36.6594C9.09058 35.4375 8.8723 5.33148 8.8723 5.33148L11.2128 2.9798L22.2687 21.8545Z" fill="#075F58"/>
</svg>
