<svg width="617" height="50" viewBox="0 0 617 50" fill="none" xmlns="http://www.w3.org/2000/svg">
<path d="M33.1373 41.3706H32.9332C32.3435 43.5933 30.8919 45.4532 28.5784 46.9502C26.3103 48.4018 23.3617 49.1276 19.7327 49.1276C16.8295 49.1276 14.1531 48.6059 11.7035 47.5626C9.29933 46.4739 7.23533 44.9088 5.51156 42.8675C3.78778 40.7809 2.4269 38.2179 1.42893 35.1786C0.476314 32.0939 7.79983e-06 28.5556 7.79983e-06 24.5637C7.79983e-06 20.6172 0.476314 17.1243 1.42893 14.085C2.38154 11.0003 3.74242 8.43736 5.51156 6.39605C7.2807 4.30937 9.41273 2.72168 11.9077 1.63298C14.4026 0.544279 17.1697 -7.11076e-05 20.209 -7.11076e-05C24.4731 -7.11076e-05 28.0341 0.952542 30.8919 2.85777C33.7497 4.76299 35.9498 7.28062 37.4921 10.4106L32.7971 13.2685C31.7084 10.7282 30.0754 8.73222 27.898 7.28062C25.7659 5.82901 23.2029 5.10321 20.209 5.10321C18.1223 5.10321 16.2171 5.4888 14.4933 6.25996C12.7696 6.98576 11.2726 8.0291 10.0024 9.38998C8.77766 10.7509 7.82505 12.3839 7.14461 14.2891C6.46417 16.1944 6.12395 18.3264 6.12395 20.6852V28.3742C6.12395 30.7331 6.46417 32.8878 7.14461 34.8384C7.82505 36.7436 8.77766 38.3766 10.0024 39.7375C11.2726 41.0984 12.8149 42.1644 14.6294 42.9356C16.4439 43.6614 18.4852 44.0243 20.7534 44.0243C22.3864 44.0243 23.9287 43.8201 25.3803 43.4119C26.8773 42.9583 28.1701 42.3005 29.2588 41.4386C30.3929 40.5767 31.2775 39.5107 31.9126 38.2406C32.5476 36.925 32.8652 35.3827 32.8652 33.6136V28.9185H22.3864V23.8833H38.4448V48.311H33.1373V41.3706ZM81.4697 48.311L76.7066 34.294H57.5183L52.7552 48.311H46.9715L63.5742 0.816456H70.8549L87.4576 48.311H81.4697ZM67.2486 6.12387H66.9083L58.8792 29.2588H75.2777L67.2486 6.12387ZM108.905 5.8517V48.311H103.189V5.8517H88.0833V0.816456H124.01V5.8517H108.905ZM133.895 48.311V0.816456H162.881V5.8517H139.61V21.7739H161.521V26.8092H139.61V43.2758H162.881V48.311H133.895ZM188.943 49.1276C185.087 49.1276 181.798 48.4018 179.076 46.9502C176.355 45.4532 174.041 43.4119 172.136 40.8262L176.355 37.2879C178.033 39.5107 179.893 41.2118 181.934 42.3912C183.976 43.5253 186.38 44.0923 189.147 44.0923C192.549 44.0923 195.135 43.2758 196.904 41.6427C198.718 40.0097 199.626 37.8323 199.626 35.1105C199.626 32.8424 198.945 31.096 197.584 29.8712C196.223 28.6464 193.978 27.6711 190.848 26.9453L186.97 26.0607C182.615 25.0627 179.281 23.5658 176.967 21.5698C174.699 19.5285 173.565 16.6707 173.565 12.9963C173.565 10.9096 173.95 9.04976 174.722 7.41671C175.493 5.78365 176.559 4.42278 177.92 3.33408C179.326 2.24537 180.982 1.42885 182.887 0.884499C184.837 0.294786 186.97 -7.11076e-05 189.283 -7.11076e-05C192.867 -7.11076e-05 195.929 0.657685 198.469 1.9732C201.055 3.28871 203.232 5.21662 205.001 7.75692L200.714 10.8869C199.399 9.07244 197.811 7.64352 195.951 6.60018C194.091 5.55684 191.778 5.03517 189.011 5.03517C185.972 5.03517 183.567 5.69293 181.798 7.00844C180.074 8.27859 179.213 10.2065 179.213 12.7922C179.213 15.0603 179.938 16.7841 181.39 17.9635C182.887 19.0976 185.132 20.0048 188.126 20.6852L192.005 21.5698C196.677 22.6132 200.057 24.2008 202.143 26.3329C204.23 28.4649 205.273 31.3001 205.273 34.8384C205.273 37.0158 204.888 38.989 204.117 40.7582C203.391 42.5273 202.325 44.0243 200.918 45.2491C199.512 46.4739 197.788 47.4265 195.747 48.1069C193.751 48.7873 191.483 49.1276 188.943 49.1276ZM272.322 8.30128H271.982L267.968 16.2624L256.604 36.9477L245.241 16.2624L241.226 8.30128H240.886V48.311H235.307V0.816456H242.928L256.536 26.4009H256.877L270.553 0.816456H277.902V48.311H272.322V8.30128ZM290.322 48.311V43.548H296.99V5.57952H290.322V0.816456H309.374V5.57952H302.706V43.548H309.374V48.311H290.322ZM321.853 48.311V0.816456H327.568V43.2758H347.777V48.311H321.853ZM357.982 48.311V0.816456H363.698V43.2758H383.907V48.311H357.982ZM407.448 49.1276C403.593 49.1276 400.304 48.4018 397.582 46.9502C394.86 45.4532 392.547 43.4119 390.642 40.8262L394.86 37.2879C396.539 39.5107 398.399 41.2118 400.44 42.3912C402.481 43.5253 404.885 44.0923 407.653 44.0923C411.055 44.0923 413.64 43.2758 415.41 41.6427C417.224 40.0097 418.131 37.8323 418.131 35.1105C418.131 32.8424 417.451 31.096 416.09 29.8712C414.729 28.6464 412.484 27.6711 409.354 26.9453L405.475 26.0607C401.12 25.0627 397.786 23.5658 395.473 21.5698C393.205 19.5285 392.071 16.6707 392.071 12.9963C392.071 10.9096 392.456 9.04976 393.227 7.41671C393.998 5.78365 395.064 4.42278 396.425 3.33408C397.832 2.24537 399.487 1.42885 401.393 0.884499C403.343 0.294786 405.475 -7.11076e-05 407.789 -7.11076e-05C411.372 -7.11076e-05 414.434 0.657685 416.975 1.9732C419.56 3.28871 421.738 5.21662 423.507 7.75692L419.22 10.8869C417.905 9.07244 416.317 7.64352 414.457 6.60018C412.597 5.55684 410.284 5.03517 407.516 5.03517C404.477 5.03517 402.073 5.69293 400.304 7.00844C398.58 8.27859 397.718 10.2065 397.718 12.7922C397.718 15.0603 398.444 16.7841 399.896 17.9635C401.393 19.0976 403.638 20.0048 406.632 20.6852L410.51 21.5698C415.183 22.6132 418.562 24.2008 420.649 26.3329C422.736 28.4649 423.779 31.3001 423.779 34.8384C423.779 37.0158 423.393 38.989 422.622 40.7582C421.896 42.5273 420.83 44.0243 419.424 45.2491C418.018 46.4739 416.294 47.4265 414.253 48.1069C412.257 48.7873 409.989 49.1276 407.448 49.1276ZM469.803 5.8517V48.311H464.087V5.8517H448.981V0.816456H484.908V5.8517H469.803ZM494.793 48.311V0.816456H523.779V5.8517H500.508V21.7739H522.419V26.8092H500.508V43.2758H523.779V48.311H494.793ZM553.243 49.1276C547.21 49.1276 542.515 47.0862 539.158 43.0036C535.801 38.8756 534.123 32.8197 534.123 24.8359C534.123 16.8521 535.801 10.7282 539.158 6.46409C542.515 2.15465 547.21 -7.11076e-05 553.243 -7.11076e-05C557.235 -7.11076e-05 560.569 0.90718 563.245 2.72168C565.967 4.53618 568.076 7.09917 569.573 10.4106L564.946 13.2004C563.994 10.7509 562.542 8.80026 560.592 7.34866C558.641 5.8517 556.192 5.10321 553.243 5.10321C551.202 5.10321 549.364 5.4888 547.731 6.25996C546.144 7.03112 544.783 8.14251 543.649 9.59411C542.56 11.0003 541.721 12.7014 541.131 14.6974C540.541 16.648 540.247 18.8481 540.247 21.2976V28.3742C540.247 33.2734 541.381 37.1065 543.649 39.8736C545.917 42.6407 549.115 44.0243 553.243 44.0243C556.282 44.0243 558.823 43.2531 560.864 41.7108C562.905 40.1231 564.402 38.0364 565.355 35.4508L569.914 38.3086C568.417 41.6654 566.262 44.3191 563.45 46.2697C560.637 48.1749 557.235 49.1276 553.243 49.1276ZM610.542 26.8092H586.523V48.311H580.807V0.816456H586.523V21.7739H610.542V0.816456H616.258V48.311H610.542V26.8092Z" fill="#075F58"/>
</svg>
